<svg width="40" height="40" viewBox="0 0 40 40" fill="none" xmlns="http://www.w3.org/2000/svg">
<circle cx="20" cy="20" r="19.5" stroke="#47A138"/>
<path d="M19.9338 18.8346C21.2529 18.8346 22.5179 18.3105 23.4505 17.3778C24.3831 16.445 24.907 15.1798 24.9066 13.8607C24.9064 12.5418 24.3821 11.2768 23.4491 10.3444C22.5162 9.41186 21.2509 8.88837 19.9318 8.88892C18.6129 8.88931 17.3481 9.41382 16.4158 10.347C15.4836 11.2801 14.9603 12.5455 14.9611 13.8645C14.9632 15.1824 15.4879 16.4458 16.4201 17.3774C17.3523 18.3092 18.6159 18.8331 19.9338 18.8347L19.9338 18.8346ZM19.9338 10.0126V10.0124C20.9555 10.0124 21.9354 10.4183 22.6576 11.1408C23.3801 11.8633 23.786 12.8431 23.786 13.8646C23.786 14.8863 23.3801 15.8662 22.6576 16.5886C21.9353 17.3111 20.9555 17.7168 19.9338 17.7168C18.9122 17.7168 17.9323 17.3111 17.21 16.5886C16.4876 15.8662 16.0816 14.8863 16.0816 13.8646C16.0824 12.8433 16.4885 11.8639 17.2108 11.1416C17.9331 10.4192 18.9124 10.0132 19.9338 10.0124V10.0126Z" fill="#47A138"/>
<path d="M13.6278 31.1112H26.235C26.755 31.1112 27.2539 30.9046 27.6217 30.5369C27.9895 30.1691 28.1961 29.6702 28.1961 29.1501V28.6373C28.14 26.4828 27.2445 24.4352 25.7007 22.9311C24.1569 21.427 22.0867 20.5852 19.9314 20.5852C17.7759 20.5852 15.7058 21.4269 14.1621 22.9311C12.6185 24.4353 11.723 26.4829 11.6667 28.6373V29.1501C11.6667 29.6702 11.8735 30.1691 12.2413 30.5369C12.6091 30.9047 13.1078 31.1112 13.628 31.1112H13.6278ZM12.7873 28.6373C12.8574 26.1326 14.2342 23.8475 16.4159 22.6149C18.5974 21.3824 21.2652 21.3824 23.4469 22.6149C25.6284 23.8475 27.0052 26.1325 27.0753 28.6373V29.1501C27.0753 29.3729 26.9868 29.5867 26.8293 29.7444C26.6716 29.9019 26.4578 29.9907 26.235 29.9907H13.6278C13.4048 29.9907 13.191 29.9019 13.0335 29.7444C12.8758 29.5867 12.7873 29.3729 12.7873 29.1501L12.7873 28.6373Z" fill="#47A138"/>
</svg>
